<svg width="1512" height="350" viewBox="0 0 1512 350" fill="none" xmlns="http://www.w3.org/2000/svg">
<path fill-rule="evenodd" clip-rule="evenodd" d="M295.731 103.004C300.805 102.051 306.081 101.612 311.485 101.758C349.736 102.784 381.135 133.779 382.656 172.009C384.305 213.83 350.89 248.269 309.434 248.269C304.762 248.269 300.182 247.829 295.749 246.986C261.822 240.575 236.156 210.771 236.156 174.995C236.156 139.219 261.803 109.415 295.731 103.004ZM311.467 231.178C310.698 232.167 311.504 233.596 312.749 233.522C343.599 231.8 368.055 206.265 368.055 174.995C368.055 143.726 343.581 118.19 312.731 116.468C311.485 116.394 310.698 117.823 311.467 118.813C323.539 134.31 330.721 153.819 330.721 174.995C330.721 196.171 323.521 215.662 311.467 231.178Z" fill="#101010"/>
<path d="M1275.85 149.636V163.093C1273.63 162.65 1271.85 162.502 1269.34 162.502C1258.1 162.502 1249.08 171.375 1249.08 184.98V227.276H1235.77V149.931H1249.08V163.093C1252.48 155.255 1260.02 149.34 1270.52 149.34C1272.59 149.34 1274.52 149.488 1275.85 149.636Z" fill="#71B1FF"/>
<path d="M1191.25 228.903C1169.81 228.903 1155.02 212.488 1155.02 188.678C1155.02 165.608 1169.66 148.453 1190.66 148.453C1212.25 148.453 1223.64 164.869 1223.64 186.312V190.749H1167.74C1168.48 207.016 1177.79 217.368 1191.25 217.368C1201.6 217.368 1209 211.749 1211.36 202.58L1223.05 206.72C1218.31 220.474 1206.63 228.903 1191.25 228.903ZM1190.51 159.84C1179.27 159.84 1170.84 167.383 1168.48 180.544H1210.18C1209.89 169.601 1203.97 159.84 1190.51 159.84Z" fill="#71B1FF"/>
<path d="M1142.56 121.094V227.276H1129.25V121.094H1142.56Z" fill="#71B1FF"/>
<path d="M1111.47 121.094V227.276H1098.16V121.094H1111.47Z" fill="#71B1FF"/>
<path d="M1044.13 228.608C1030.08 228.608 1018.69 220.326 1018.69 206.425C1018.69 191.044 1030.67 184.685 1047.97 181.136L1066.75 177.291V174.037C1066.75 165.164 1061.87 160.136 1051.52 160.136C1041.76 160.136 1035.99 164.721 1033.63 173.298L1021.06 170.045C1024.75 157.474 1036.14 148.453 1051.97 148.453C1069.27 148.453 1079.92 156.883 1079.92 173.446V211.157C1079.92 216.185 1083.02 217.812 1088.2 216.629V227.277C1076.37 228.755 1069.56 225.946 1067.94 218.551C1063.21 224.615 1054.63 228.608 1044.13 228.608ZM1066.75 200.953V187.643L1051.67 190.897C1039.84 193.263 1031.85 196.516 1031.85 205.833C1031.85 213.375 1037.33 217.812 1045.75 217.812C1057.14 217.812 1066.75 210.861 1066.75 200.953Z" fill="#71B1FF"/>
<path d="M981.002 208.79V161.319H969.023V149.931H981.002V127.305H994.164V149.931H1011.76V161.319H994.164V206.72C994.164 214.853 998.157 216.332 1004.96 216.332C1008.07 216.332 1010.28 216.184 1013.39 215.445V226.832C1009.99 227.572 1006.14 228.015 1001.71 228.015C988.544 228.015 981.002 223.579 981.002 208.79Z" fill="#71B1FF"/>
<path d="M902.871 210.861L913.223 203.319C917.364 212.34 926.829 217.812 936.885 217.812C945.906 217.812 953.892 213.967 953.892 205.537C953.892 197.108 946.498 195.925 933.779 193.263C921.061 190.453 907.751 187.643 907.751 171.819C907.751 158.066 919.73 148.453 936.146 148.453C950.047 148.453 961.434 155.256 966.019 164.425L956.554 171.967C952.561 164.277 945.315 159.397 935.554 159.397C926.681 159.397 920.765 163.833 920.765 170.784C920.765 178.03 927.568 179.361 938.364 181.728C951.674 184.833 966.906 187.495 966.906 204.354C966.906 219.143 953.448 228.903 936.885 228.903C922.836 228.903 908.787 222.84 902.871 210.861Z" fill="#71B1FF"/>
<path d="M832.41 227.277V149.932H845.72V160.432C850.157 154.073 857.847 148.453 868.79 148.453C885.206 148.453 894.522 159.84 894.522 176.256V227.277H881.213V179.805C881.213 169.009 876.628 160.876 865.093 160.876C855.48 160.876 845.72 168.27 845.72 181.136V227.277H832.41Z" fill="#71B1FF"/>
<path d="M814.088 121.094V227.276H799.891V121.094H814.088Z" fill="#71B1FF"/>
<path d="M728.021 228.903C706.578 228.903 691.789 212.488 691.789 188.678C691.789 165.608 706.43 148.453 727.43 148.453C749.021 148.453 760.408 164.869 760.408 186.312V190.749H704.507C705.247 207.016 714.564 217.368 728.021 217.368C738.373 217.368 745.768 211.749 748.134 202.58L759.817 206.72C755.084 220.474 743.401 228.903 728.021 228.903ZM727.282 159.84C716.042 159.84 707.613 167.383 705.247 180.544H746.951C746.655 169.601 740.739 159.84 727.282 159.84Z" fill="#71B1FF"/>
<path d="M642.281 228.903C620.837 228.903 608.562 210.565 608.562 188.678C608.562 166.643 620.837 148.453 642.281 148.453C653.076 148.453 661.654 153.629 666.238 161.171V121.094H679.548V227.276H666.238V216.037C661.654 223.727 653.076 228.903 642.281 228.903ZM666.534 186.016C666.534 167.974 655.59 160.136 644.647 160.136C630.154 160.136 622.02 171.967 622.02 188.678C622.02 205.241 630.154 217.22 644.647 217.22C655.59 217.22 666.534 209.234 666.534 191.488V186.016Z" fill="#71B1FF"/>
<path d="M601.396 188.678C601.396 212.636 586.608 228.903 565.46 228.903C544.312 228.903 529.523 212.636 529.523 188.678C529.523 164.721 544.312 148.453 565.46 148.453C586.608 148.453 601.396 164.721 601.396 188.678ZM542.981 188.678C542.981 206.277 551.854 217.516 565.46 217.516C579.065 217.516 587.939 206.277 587.939 188.678C587.939 170.932 579.065 159.693 565.46 159.693C551.854 159.693 542.981 170.932 542.981 188.678Z" fill="#71B1FF"/>
<path d="M516.566 121.094V227.276H504.292L446.32 141.798V227.276H432.715V121.094H447.651L502.813 203.171V121.094H516.566Z" fill="#71B1FF"/>
</svg>